<svg xmlns="http://www.w3.org/2000/svg" xmlns:svg="http://www.w3.org/2000/svg" xmlns:xlink="http://www.w3.org/1999/xlink" id="svg2" width="1024" height="1024" version="1.1" viewBox="0 0 1024 1024"><defs id="defs4"><linearGradient id="linearGradient3338"><stop id="stop3340" offset="0" stop-color="#6e8e65" stop-opacity="1"/><stop id="stop3342" offset="1" stop-color="#191817" stop-opacity="1"/></linearGradient><linearGradient id="linearGradient3344" x1="478.812" x2="478.812" y1="-64.867" y2="1167.52" gradientUnits="userSpaceOnUse" xlink:href="#linearGradient3338"/><filter id="filter4157" color-interpolation-filters="sRGB"><feTurbulence id="feTurbulence4159" baseFrequency="1" numOctaves="3" result="result0" seed="0" type="fractalNoise"/><feColorMatrix id="feColorMatrix4161" result="result4" type="saturate" values="0"/><feComposite id="feComposite4163" in="SourceGraphic" in2="result4" k1=".5" k2=".25" k3=".25" operator="arithmetic" result="result2"/><feBlend id="feBlend4165" in="result2" in2="SourceGraphic" mode="normal" result="result5"/><feComposite id="feComposite4167" in="result5" in2="SourceGraphic" operator="in" result="result3"/></filter><clipPath id="clipPath4158" clipPathUnits="userSpaceOnUse"><rect id="rect4160" width="941.044" height="549.396" x="38.077" y="412.307" fill="#ff9a00" fill-opacity="1" stroke="none" stroke-dasharray="none" stroke-linecap="round" stroke-linejoin="round" stroke-miterlimit="4" stroke-opacity="1" stroke-width="9"/></clipPath><filter id="filter6033" width="2" height="2" x="-.5" y="-.5" color-interpolation-filters="sRGB"><feGaussianBlur id="feGaussianBlur6035" result="result1" stdDeviation=".01"/><feBlend id="feBlend6037" in2="result1" mode="multiply" result="fbSourceGraphic"/><feTurbulence id="feTurbulence6039" baseFrequency=".8" numOctaves="3" result="result3" seed="0" type="fractalNoise"/><feDisplacementMap id="feDisplacementMap6041" in="fbSourceGraphic" in2="result3" result="result2" scale="33.3" xChannelSelector="R" yChannelSelector="G"/><feMorphology id="feMorphology6043" operator="dilate" radius="1" result="result4"/><feBlend id="feBlend6045" in2="result2" mode="screen"/></filter></defs><metadata id="metadata7"/><g id="layer1" transform="translate(0,-28.362161)"><rect id="rect3336" width="1100" height="1100" x="-38" y="-9.638" fill="url(#linearGradient3344)" fill-opacity="1" fill-rule="evenodd" stroke="none" stroke-linecap="butt" stroke-linejoin="miter" stroke-opacity="1" stroke-width="1" filter="url(#filter4157)"/><text id="text4154" x="82.877" y="829.616" fill="#fff" fill-opacity="1" stroke="none" stroke-linecap="butt" stroke-linejoin="miter" stroke-opacity="1" stroke-width="1" filter="url(#filter6033)" font-family="Roboto" font-size="176.333" font-stretch="normal" font-style="normal" font-variant="normal" font-weight="normal" letter-spacing="0" transform="matrix(0.97402007,0,0,0.97402007,13.301738,-7.9058265)" word-spacing="0" xml:space="preserve" style="line-height:125%;-inkscape-font-specification:Roboto"><tspan id="tspan4156" x="82.877" y="829.616">Explosions</tspan></text><circle id="use4910" cx="442.355" cy="301.775" r="13.246" fill="#0b5be4" fill-opacity="1" stroke="none" stroke-dasharray="none" stroke-linecap="round" stroke-linejoin="miter" stroke-miterlimit="4" stroke-opacity="1" stroke-width="1" opacity="1" transform="matrix(0.99975029,-0.02234632,0.02234632,0.99975029,0,0)"/><circle id="path4160" cx="558.155" cy="501.343" r="20.938" fill="#9d0be4" fill-opacity="1" stroke="none" stroke-dasharray="none" stroke-linecap="round" stroke-linejoin="miter" stroke-miterlimit="4" stroke-opacity="1" stroke-width="1" opacity="1" transform="matrix(0.99975029,-0.02234632,0.02234632,0.99975029,0,0)"/><circle id="use4906" cx="432.896" cy="363.502" r="20.938" fill="#ade40b" fill-opacity="1" stroke="none" stroke-dasharray="none" stroke-linecap="round" stroke-linejoin="miter" stroke-miterlimit="4" stroke-opacity="1" stroke-width="1" opacity="1" transform="matrix(0.99975029,-0.02234632,0.02234632,0.99975029,0,0)"/><circle id="use4908" cx="440.47" cy="556.06" r="20.938" fill="#0b3fe4" fill-opacity="1" stroke="none" stroke-dasharray="none" stroke-linecap="round" stroke-linejoin="miter" stroke-miterlimit="4" stroke-opacity="1" stroke-width="1" opacity="1" transform="matrix(0.99975029,-0.02234632,0.02234632,0.99975029,0,0)"/><circle id="use4912" cx="531.862" cy="559.511" r="20.938" fill="#c70be4" fill-opacity="1" stroke="none" stroke-dasharray="none" stroke-linecap="round" stroke-linejoin="miter" stroke-miterlimit="4" stroke-opacity="1" stroke-width="1" opacity="1" transform="matrix(0.99975029,-0.02234632,0.02234632,0.99975029,0,0)"/><circle id="use4914" cx="480.34" cy="596.069" r="20.938" fill="#0be442" fill-opacity="1" stroke="none" stroke-dasharray="none" stroke-linecap="round" stroke-linejoin="miter" stroke-miterlimit="4" stroke-opacity="1" stroke-width="1" opacity="1" transform="matrix(0.99975029,-0.02234632,0.02234632,0.99975029,0,0)"/><circle id="use4916" cx="600.032" cy="454.821" r="19.891" fill="#e4440b" fill-opacity="1" stroke="none" stroke-dasharray="none" stroke-linecap="round" stroke-linejoin="miter" stroke-miterlimit="4" stroke-opacity="1" stroke-width="1" opacity=".95" transform="matrix(0.99975029,-0.02234632,0.02234632,0.99975029,0,0)"/><circle id="use4918" cx="402.528" cy="499.721" r="19.891" fill="#e4b70b" fill-opacity="1" stroke="none" stroke-dasharray="none" stroke-linecap="round" stroke-linejoin="miter" stroke-miterlimit="4" stroke-opacity="1" stroke-width="1" opacity=".95" transform="matrix(0.99975029,-0.02234632,0.02234632,0.99975029,0,0)"/><circle id="use4920" cx="489.671" cy="462.882" r="19.891" fill="#e4cc0b" fill-opacity="1" stroke="none" stroke-dasharray="none" stroke-linecap="round" stroke-linejoin="miter" stroke-miterlimit="4" stroke-opacity="1" stroke-width="1" opacity=".95" transform="matrix(0.99975029,-0.02234632,0.02234632,0.99975029,0,0)"/><circle id="use4922" cx="315.665" cy="480.156" r="19.891" fill="#e40b55" fill-opacity="1" stroke="none" stroke-dasharray="none" stroke-linecap="round" stroke-linejoin="miter" stroke-miterlimit="4" stroke-opacity="1" stroke-width="1" opacity=".95" transform="matrix(0.99975029,-0.02234632,0.02234632,0.99975029,0,0)"/><circle id="use4924" cx="414.579" cy="448.839" r="19.891" fill="#e40b68" fill-opacity="1" stroke="none" stroke-dasharray="none" stroke-linecap="round" stroke-linejoin="miter" stroke-miterlimit="4" stroke-opacity="1" stroke-width="1" opacity=".95" transform="matrix(0.99975029,-0.02234632,0.02234632,0.99975029,0,0)"/><circle id="use4926" cx="277.074" cy="398.318" r="18.844" fill="#e43b0b" fill-opacity="1" stroke="none" stroke-dasharray="none" stroke-linecap="round" stroke-linejoin="miter" stroke-miterlimit="4" stroke-opacity="1" stroke-width="1" opacity=".9" transform="matrix(0.99975029,-0.02234632,0.02234632,0.99975029,0,0)"/><circle id="use4928" cx="354.844" cy="359.432" r="18.844" fill="#0be4b6" fill-opacity="1" stroke="none" stroke-dasharray="none" stroke-linecap="round" stroke-linejoin="miter" stroke-miterlimit="4" stroke-opacity="1" stroke-width="1" opacity=".9" transform="matrix(0.99975029,-0.02234632,0.02234632,0.99975029,0,0)"/><circle id="use4930" cx="491.808" cy="535.483" r="18.844" fill="#0bbde4" fill-opacity="1" stroke="none" stroke-dasharray="none" stroke-linecap="round" stroke-linejoin="miter" stroke-miterlimit="4" stroke-opacity="1" stroke-width="1" opacity=".9" transform="matrix(0.99975029,-0.02234632,0.02234632,0.99975029,0,0)"/><circle id="use4932" cx="552.173" cy="375.396" r="18.844" fill="#c30be4" fill-opacity="1" stroke="none" stroke-dasharray="none" stroke-linecap="round" stroke-linejoin="miter" stroke-miterlimit="4" stroke-opacity="1" stroke-width="1" opacity=".9" transform="matrix(0.99975029,-0.02234632,0.02234632,0.99975029,0,0)"/><circle id="use4934" cx="651.016" cy="408.283" r="18.844" fill="#0be4a8" fill-opacity="1" stroke="none" stroke-dasharray="none" stroke-linecap="round" stroke-linejoin="miter" stroke-miterlimit="4" stroke-opacity="1" stroke-width="1" opacity=".9" transform="matrix(0.99975029,-0.02234632,0.02234632,0.99975029,0,0)"/><circle id="use4936" cx="618.113" cy="331.849" r="17.798" fill="#1d0be4" fill-opacity="1" stroke="none" stroke-dasharray="none" stroke-linecap="round" stroke-linejoin="miter" stroke-miterlimit="4" stroke-opacity="1" stroke-width="1" opacity=".85" transform="matrix(0.99975029,-0.02234632,0.02234632,0.99975029,0,0)"/><circle id="use4938" cx="501.323" cy="331.865" r="17.798" fill="#0be42d" fill-opacity="1" stroke="none" stroke-dasharray="none" stroke-linecap="round" stroke-linejoin="miter" stroke-miterlimit="4" stroke-opacity="1" stroke-width="1" opacity=".85" transform="matrix(0.99975029,-0.02234632,0.02234632,0.99975029,0,0)"/><circle id="use4940" cx="318.95" cy="306.928" r="17.798" fill="#e40bcc" fill-opacity="1" stroke="none" stroke-dasharray="none" stroke-linecap="round" stroke-linejoin="miter" stroke-miterlimit="4" stroke-opacity="1" stroke-width="1" opacity=".85" transform="matrix(0.99975029,-0.02234632,0.02234632,0.99975029,0,0)"/><circle id="use4942" cx="229.215" cy="345.813" r="17.798" fill="#73e40b" fill-opacity="1" stroke="none" stroke-dasharray="none" stroke-linecap="round" stroke-linejoin="miter" stroke-miterlimit="4" stroke-opacity="1" stroke-width="1" opacity=".85" transform="matrix(0.99975029,-0.02234632,0.02234632,0.99975029,0,0)"/><circle id="use4944" cx="692.892" cy="352.787" r="17.798" fill="#e40b81" fill-opacity="1" stroke="none" stroke-dasharray="none" stroke-linecap="round" stroke-linejoin="miter" stroke-miterlimit="4" stroke-opacity="1" stroke-width="1" opacity=".85" transform="matrix(0.99975029,-0.02234632,0.02234632,0.99975029,0,0)"/><circle id="use4946" cx="701.866" cy="449.842" r="16.751" fill="#43e40b" fill-opacity="1" stroke="none" stroke-dasharray="none" stroke-linecap="round" stroke-linejoin="miter" stroke-miterlimit="4" stroke-opacity="1" stroke-width="1" opacity=".8" transform="matrix(0.99975029,-0.02234632,0.02234632,0.99975029,0,0)"/><circle id="use4948" cx="818.522" cy="455.825" r="16.751" fill="#e42a0b" fill-opacity="1" stroke="none" stroke-dasharray="none" stroke-linecap="round" stroke-linejoin="miter" stroke-miterlimit="4" stroke-opacity="1" stroke-width="1" opacity=".8" transform="matrix(0.99975029,-0.02234632,0.02234632,0.99975029,0,0)"/><circle id="use4950" cx="752.716" cy="410.957" r="16.751" fill="#0b7ae4" fill-opacity="1" stroke="none" stroke-dasharray="none" stroke-linecap="round" stroke-linejoin="miter" stroke-miterlimit="4" stroke-opacity="1" stroke-width="1" opacity=".8" transform="matrix(0.99975029,-0.02234632,0.02234632,0.99975029,0,0)"/><circle id="use4952" cx="488.441" cy="246.785" r="16.751" fill="#0be45d" fill-opacity="1" stroke="none" stroke-dasharray="none" stroke-linecap="round" stroke-linejoin="miter" stroke-miterlimit="4" stroke-opacity="1" stroke-width="1" opacity=".8" transform="matrix(0.99975029,-0.02234632,0.02234632,0.99975029,0,0)"/><circle id="use4956" cx="827.496" cy="400.329" r="15.704" fill="#e40b5c" fill-opacity="1" stroke="none" stroke-dasharray="none" stroke-linecap="round" stroke-linejoin="miter" stroke-miterlimit="4" stroke-opacity="1" stroke-width="1" opacity=".75" transform="matrix(0.99975029,-0.02234632,0.02234632,0.99975029,0,0)"/><circle id="use4958" cx="568.726" cy="310.06" r="15.704" fill="#e40b68" fill-opacity="1" stroke="none" stroke-dasharray="none" stroke-linecap="round" stroke-linejoin="miter" stroke-miterlimit="4" stroke-opacity="1" stroke-width="1" opacity=".75" transform="matrix(0.99975029,-0.02234632,0.02234632,0.99975029,0,0)"/><circle id="use4960" cx="115.55" cy="432.24" r="15.704" fill="#920be4" fill-opacity="1" stroke="none" stroke-dasharray="none" stroke-linecap="round" stroke-linejoin="miter" stroke-miterlimit="4" stroke-opacity="1" stroke-width="1" opacity=".75" transform="matrix(0.99975029,-0.02234632,0.02234632,0.99975029,0,0)"/><circle id="use4962" cx="162.72" cy="377.132" r="15.704" fill="#0be4ce" fill-opacity="1" stroke="none" stroke-dasharray="none" stroke-linecap="round" stroke-linejoin="miter" stroke-miterlimit="4" stroke-opacity="1" stroke-width="1" opacity=".75" transform="matrix(0.99975029,-0.02234632,0.02234632,0.99975029,0,0)"/><circle id="use4964" cx="773.654" cy="349.479" r="15.704" fill="#3f0be4" fill-opacity="1" stroke="none" stroke-dasharray="none" stroke-linecap="round" stroke-linejoin="miter" stroke-miterlimit="4" stroke-opacity="1" stroke-width="1" opacity=".75" transform="matrix(0.99975029,-0.02234632,0.02234632,0.99975029,0,0)"/><circle id="use4966" cx="115.55" cy="511.348" r="14.657" fill="#e40b0e" fill-opacity="1" stroke="none" stroke-dasharray="none" stroke-linecap="round" stroke-linejoin="miter" stroke-miterlimit="4" stroke-opacity="1" stroke-width="1" opacity=".7" transform="matrix(0.99975029,-0.02234632,0.02234632,0.99975029,0,0)"/><circle id="use4968" cx="392.401" cy="283.362" r="14.657" fill="#64e40b" fill-opacity="1" stroke="none" stroke-dasharray="none" stroke-linecap="round" stroke-linejoin="miter" stroke-miterlimit="4" stroke-opacity="1" stroke-width="1" opacity=".7" transform="matrix(0.99975029,-0.02234632,0.02234632,0.99975029,0,0)"/><circle id="use4970" cx="244.171" cy="290.001" r="14.657" fill="#0ba7e4" fill-opacity="1" stroke="none" stroke-dasharray="none" stroke-linecap="round" stroke-linejoin="miter" stroke-miterlimit="4" stroke-opacity="1" stroke-width="1" opacity=".7" transform="matrix(0.99975029,-0.02234632,0.02234632,0.99975029,0,0)"/><circle id="use4972" cx="878.346" cy="452.516" r="14.657" fill="#740be4" fill-opacity="1" stroke="none" stroke-dasharray="none" stroke-linecap="round" stroke-linejoin="miter" stroke-miterlimit="4" stroke-opacity="1" stroke-width="1" opacity=".7" transform="matrix(0.99975029,-0.02234632,0.02234632,0.99975029,0,0)"/><circle id="use4974" cx="866.381" cy="521.313" r="14.657" fill="#e40b35" fill-opacity="1" stroke="none" stroke-dasharray="none" stroke-linecap="round" stroke-linejoin="miter" stroke-miterlimit="4" stroke-opacity="1" stroke-width="1" opacity=".7" transform="matrix(0.99975029,-0.02234632,0.02234632,0.99975029,0,0)"/><circle id="use4976" cx="357.835" cy="425.941" r="13.61" fill="#5de40b" fill-opacity="1" stroke="none" stroke-dasharray="none" stroke-linecap="round" stroke-linejoin="miter" stroke-miterlimit="4" stroke-opacity="1" stroke-width="1" opacity=".65" transform="matrix(0.99975029,-0.02234632,0.02234632,0.99975029,0,0)"/><circle id="use4978" cx="683.919" cy="489.747" r="13.61" fill="#d1e40b" fill-opacity="1" stroke="none" stroke-dasharray="none" stroke-linecap="round" stroke-linejoin="miter" stroke-miterlimit="4" stroke-opacity="1" stroke-width="1" opacity=".65" transform="matrix(0.99975029,-0.02234632,0.02234632,0.99975029,0,0)"/><circle id="use4980" cx="661.156" cy="296.222" r="13.61" fill="#e42b0b" fill-opacity="1" stroke="none" stroke-dasharray="none" stroke-linecap="round" stroke-linejoin="miter" stroke-miterlimit="4" stroke-opacity="1" stroke-width="1" opacity=".65" transform="matrix(0.99975029,-0.02234632,0.02234632,0.99975029,0,0)"/><circle id="use4982" cx="905.567" cy="591.297" r="13.61" fill="#e40bc2" fill-opacity="1" stroke="none" stroke-dasharray="none" stroke-linecap="round" stroke-linejoin="miter" stroke-miterlimit="4" stroke-opacity="1" stroke-width="1" opacity=".65" transform="matrix(0.99975029,-0.02234632,0.02234632,0.99975029,0,0)"/><circle id="use4984" cx="780.172" cy="-108.925" r="13.61" fill="#0be1e4" fill-opacity="1" stroke="none" stroke-dasharray="none" stroke-linecap="round" stroke-linejoin="miter" stroke-miterlimit="4" stroke-opacity="1" stroke-width="1" opacity=".65" transform="matrix(0.8713968,0.49057887,-0.49057887,0.8713968,0,0)"/><circle id="use4988" cx="777.096" cy="482.521" r="12.563" fill="#0b6ee4" fill-opacity="1" stroke="none" stroke-dasharray="none" stroke-linecap="round" stroke-linejoin="miter" stroke-miterlimit="4" stroke-opacity="1" stroke-width="1" opacity=".6" transform="matrix(0.99975029,-0.02234632,0.02234632,0.99975029,0,0)"/><circle id="use4990" cx="70.614" cy="547.547" r="12.563" fill="#e40b19" fill-opacity="1" stroke="none" stroke-dasharray="none" stroke-linecap="round" stroke-linejoin="miter" stroke-miterlimit="4" stroke-opacity="1" stroke-width="1" opacity=".6" transform="matrix(0.99975029,-0.02234632,0.02234632,0.99975029,0,0)"/><circle id="use4992" cx="220.241" cy="445.225" r="12.563" fill="#3ae40b" fill-opacity="1" stroke="none" stroke-dasharray="none" stroke-linecap="round" stroke-linejoin="miter" stroke-miterlimit="4" stroke-opacity="1" stroke-width="1" opacity=".6" transform="matrix(0.99975029,-0.02234632,0.02234632,0.99975029,0,0)"/><circle id="use4994" cx="480.385" cy="392.391" r="12.563" fill="#0b5de4" fill-opacity="1" stroke="none" stroke-dasharray="none" stroke-linecap="round" stroke-linejoin="miter" stroke-miterlimit="4" stroke-opacity="1" stroke-width="1" opacity=".6" transform="matrix(0.99975029,-0.02234632,0.02234632,0.99975029,0,0)"/><circle id="use4996" cx="334.149" cy="246.402" r="11.516" fill="#e4a70b" fill-opacity="1" stroke="none" stroke-dasharray="none" stroke-linecap="round" stroke-linejoin="miter" stroke-miterlimit="4" stroke-opacity="1" stroke-width="1" opacity=".55" transform="matrix(0.99975029,-0.02234632,0.02234632,0.99975029,0,0)"/><circle id="use4998" cx="171.287" cy="487.096" r="11.516" fill="#0be412" fill-opacity="1" stroke="none" stroke-dasharray="none" stroke-linecap="round" stroke-linejoin="miter" stroke-miterlimit="4" stroke-opacity="1" stroke-width="1" opacity=".55" transform="matrix(0.99975029,-0.02234632,0.02234632,0.99975029,0,0)"/><circle id="use5000" cx="803.742" cy="537.549" r="11.516" fill="#0be488" fill-opacity="1" stroke="none" stroke-dasharray="none" stroke-linecap="round" stroke-linejoin="miter" stroke-miterlimit="4" stroke-opacity="1" stroke-width="1" opacity=".55" transform="matrix(0.99975029,-0.02234632,0.02234632,0.99975029,0,0)"/><circle id="use5002" cx="597.875" cy="232.527" r="11.516" fill="#e40b4b" fill-opacity="1" stroke="none" stroke-dasharray="none" stroke-linecap="round" stroke-linejoin="miter" stroke-miterlimit="4" stroke-opacity="1" stroke-width="1" opacity=".55" transform="matrix(0.99975029,-0.02234632,0.02234632,0.99975029,0,0)"/><circle id="use5004" cx="626.075" cy="492.281" r="11.516" fill="#e4720b" fill-opacity="1" stroke="none" stroke-dasharray="none" stroke-linecap="round" stroke-linejoin="miter" stroke-miterlimit="4" stroke-opacity="1" stroke-width="1" opacity=".55" transform="matrix(0.99975029,-0.02234632,0.02234632,0.99975029,0,0)"/><circle id="use4910-8" cx="253.101" cy="480.993" r="13.918" fill="#420be4" fill-opacity="1" stroke="none" stroke-dasharray="none" stroke-linecap="round" stroke-linejoin="miter" stroke-miterlimit="4" stroke-opacity="1" stroke-width="1" opacity="1" transform="matrix(0.99975029,-0.02234632,0.02234632,0.99975029,0,0)"/><circle id="use4912-8" cx="198.507" cy="518.019" r="13.918" fill="#e40b47" fill-opacity="1" stroke="none" stroke-dasharray="none" stroke-linecap="round" stroke-linejoin="miter" stroke-miterlimit="4" stroke-opacity="1" stroke-width="1" opacity="1" transform="matrix(0.99975029,-0.02234632,0.02234632,0.99975029,0,0)"/><circle id="circle5495" cx="929.758" cy="547.598" r="11.969" fill="#0ae4a3" fill-opacity="1" stroke="none" stroke-dasharray="none" stroke-linecap="round" stroke-linejoin="miter" stroke-miterlimit="4" stroke-opacity="1" stroke-width="1" opacity=".7" transform="matrix(0.99975029,-0.02234632,0.02234632,0.99975029,0,0)"/><circle id="circle5503" cx="541.44" cy="433.856" r="11.114" fill="#7de40a" fill-opacity="1" stroke="none" stroke-dasharray="none" stroke-linecap="round" stroke-linejoin="miter" stroke-miterlimit="4" stroke-opacity="1" stroke-width="1" opacity=".65" transform="matrix(0.99975029,-0.02234632,0.02234632,0.99975029,0,0)"/><circle id="circle5507" cx="697.485" cy="539.029" r="10.259" fill="#e40abb" fill-opacity="1" stroke="none" stroke-dasharray="none" stroke-linecap="round" stroke-linejoin="miter" stroke-miterlimit="4" stroke-opacity="1" stroke-width="1" opacity=".6" transform="matrix(0.99975029,-0.02234632,0.02234632,0.99975029,0,0)"/><circle id="circle5509" cx="648.451" cy="259.402" r="10.259" fill="#0ae46a" fill-opacity="1" stroke="none" stroke-dasharray="none" stroke-linecap="round" stroke-linejoin="miter" stroke-miterlimit="4" stroke-opacity="1" stroke-width="1" opacity=".6" transform="matrix(0.99975029,-0.02234632,0.02234632,0.99975029,0,0)"/><circle id="circle5511" cx="551.892" cy="255.355" r="10.259" fill="#d10ae4" fill-opacity="1" stroke="none" stroke-dasharray="none" stroke-linecap="round" stroke-linejoin="miter" stroke-miterlimit="4" stroke-opacity="1" stroke-width="1" opacity=".6" transform="matrix(0.99975029,-0.02234632,0.02234632,0.99975029,0,0)"/><circle id="circle5515" cx="403.293" cy="404.977" r="10.259" fill="#240ae4" fill-opacity="1" stroke="none" stroke-dasharray="none" stroke-linecap="round" stroke-linejoin="miter" stroke-miterlimit="4" stroke-opacity="1" stroke-width="1" opacity=".6" transform="matrix(0.99975029,-0.02234632,0.02234632,0.99975029,0,0)"/><circle id="circle5519" cx="89.102" cy="591.556" r="9.404" fill="#e48e0a" fill-opacity="1" stroke="none" stroke-dasharray="none" stroke-linecap="round" stroke-linejoin="miter" stroke-miterlimit="4" stroke-opacity="1" stroke-width="1" opacity=".55" transform="matrix(0.99975029,-0.02234632,0.02234632,0.99975029,0,0)"/><circle id="circle5521" cx="746.657" cy="528.812" r="9.404" fill="#0be40a" fill-opacity="1" stroke="none" stroke-dasharray="none" stroke-linecap="round" stroke-linejoin="miter" stroke-miterlimit="4" stroke-opacity="1" stroke-width="1" opacity=".55" transform="matrix(0.99975029,-0.02234632,0.02234632,0.99975029,0,0)"/><circle id="circle5523" cx="865.081" cy="563.348" r="9.404" fill="#e40ace" fill-opacity="1" stroke="none" stroke-dasharray="none" stroke-linecap="round" stroke-linejoin="miter" stroke-miterlimit="4" stroke-opacity="1" stroke-width="1" opacity=".55" transform="matrix(0.99975029,-0.02234632,0.02234632,0.99975029,0,0)"/><circle id="circle5527" cx="428.801" cy="219.398" r="11.366" fill="#d40ae4" fill-opacity="1" stroke="none" stroke-dasharray="none" stroke-linecap="round" stroke-linejoin="miter" stroke-miterlimit="4" stroke-opacity="1" stroke-width="1" opacity="1" transform="matrix(0.99975029,-0.02234632,0.02234632,0.99975029,0,0)"/></g></svg>