<svg xmlns="http://www.w3.org/2000/svg" xmlns:svg="http://www.w3.org/2000/svg" xmlns:xlink="http://www.w3.org/1999/xlink" id="svg2" width="1024" height="1024" version="1.1" viewBox="0 0 1024 1024"><defs id="defs4"><linearGradient id="linearGradient3338"><stop id="stop3340" offset="0" stop-color="#e796e0" stop-opacity="1"/><stop id="stop3342" offset="1" stop-color="#191817" stop-opacity="1"/></linearGradient><linearGradient id="linearGradient3344" x1="478.812" x2="478.812" y1="-64.867" y2="1167.52" gradientUnits="userSpaceOnUse" xlink:href="#linearGradient3338"/><filter id="filter4157" color-interpolation-filters="sRGB"><feTurbulence id="feTurbulence4159" baseFrequency="1" numOctaves="3" result="result0" seed="0" type="fractalNoise"/><feColorMatrix id="feColorMatrix4161" result="result4" type="saturate" values="0"/><feComposite id="feComposite4163" in="SourceGraphic" in2="result4" k1=".5" k2=".25" k3=".25" operator="arithmetic" result="result2"/><feBlend id="feBlend4165" in="result2" in2="SourceGraphic" mode="normal" result="result5"/><feComposite id="feComposite4167" in="result5" in2="SourceGraphic" operator="in" result="result3"/></filter></defs><metadata id="metadata7"/><g id="layer1" transform="translate(0,-28.362161)"><rect id="rect3336" width="1100" height="1100" x="-38" y="-9.638" fill="url(#linearGradient3344)" fill-opacity="1" fill-rule="evenodd" stroke="none" stroke-linecap="butt" stroke-linejoin="miter" stroke-opacity="1" stroke-width="1" filter="url(#filter4157)"/><ellipse id="path4160" cx="512" cy="540.362" fill="none" fill-opacity="1" stroke="#ffac33" stroke-dasharray="none" stroke-linecap="butt" stroke-linejoin="miter" stroke-miterlimit="4" stroke-opacity="1" stroke-width="30" rx="416" ry="416"/><path id="path4146" fill="#ffac33" fill-opacity="1" stroke="#ffac33" stroke-dasharray="none" stroke-linecap="round" stroke-linejoin="round" stroke-miterlimit="4" stroke-opacity="1" stroke-width="7" d="m 512.00001,299.87337 c 21.93313,0 66.20455,119.38267 83.94882,132.27464 17.74427,12.89197 144.96457,18.10533 151.74228,38.96498 6.77771,20.85964 -93.08134,99.85554 -99.85905,120.71519 -6.77771,20.85964 27.57732,143.46435 9.83305,156.35632 C 639.92084,761.07647 533.93313,690.51595 512,690.51595 c -21.93313,-10e-6 -127.92085,70.56051 -145.66512,57.66854 -17.74428,-12.89197 16.61077,-135.49667 9.83306,-156.35631 -6.77771,-20.85965 -106.63676,-99.85556 -99.85905,-120.71521 6.77771,-20.85964 133.998,-26.07299 151.74228,-38.96496 17.74427,-12.89197 62.01571,-132.27464 83.94884,-132.27464 z"/><path id="path4159" fill="none" fill-rule="evenodd" stroke="#fa7844" stroke-dasharray="none" stroke-linecap="butt" stroke-linejoin="miter" stroke-miterlimit="4" stroke-opacity="1" stroke-width="6.422" d="m 303.12798,302.12727 59.1836,68.05219"/><path id="path4161" fill="none" fill-rule="evenodd" stroke="#fa7844" stroke-dasharray="none" stroke-linecap="butt" stroke-linejoin="miter" stroke-miterlimit="4" stroke-opacity="1" stroke-width="5.455" d="m 720.08956,292.219 -53.09122,55.23137"/><path id="path4163" fill="none" fill-rule="evenodd" stroke="#fa7844" stroke-dasharray="none" stroke-linecap="butt" stroke-linejoin="miter" stroke-miterlimit="4" stroke-opacity="1" stroke-width="5.4" d="M 739.13856,644.31291 807.5098,677.1147"/><path id="path4163-7" fill="none" fill-rule="evenodd" stroke="#fa7844" stroke-dasharray="none" stroke-linecap="butt" stroke-linejoin="miter" stroke-miterlimit="4" stroke-opacity="1" stroke-width="6.354" d="m 510.14086,782.9274 2.35563,89.19919"/><path id="path4161-0" fill="none" fill-rule="evenodd" stroke="#fa7844" stroke-dasharray="none" stroke-linecap="butt" stroke-linejoin="miter" stroke-miterlimit="4" stroke-opacity="1" stroke-width="6.299" d="m 298.59559,638.99068 -82.24612,32.56714"/></g></svg>