<svg xmlns="http://www.w3.org/2000/svg" xmlns:svg="http://www.w3.org/2000/svg" xmlns:xlink="http://www.w3.org/1999/xlink" id="svg2" width="1024" height="1024" version="1.1" viewBox="0 0 1024 1024"><defs id="defs4"><linearGradient id="linearGradient3338"><stop id="stop3340" offset="0" stop-color="#ff80e5" stop-opacity="1"/><stop id="stop3342" offset="1" stop-color="#191817" stop-opacity="1"/></linearGradient><linearGradient id="linearGradient3344" x1="478.812" x2="478.812" y1="-64.867" y2="1167.52" gradientUnits="userSpaceOnUse" xlink:href="#linearGradient3338"/><filter id="filter4157" color-interpolation-filters="sRGB"><feTurbulence id="feTurbulence4159" baseFrequency="1" numOctaves="3" result="result0" seed="0" type="fractalNoise"/><feColorMatrix id="feColorMatrix4161" result="result4" type="saturate" values="0"/><feComposite id="feComposite4163" in="SourceGraphic" in2="result4" k1=".5" k2=".25" k3=".25" operator="arithmetic" result="result2"/><feBlend id="feBlend4165" in="result2" in2="SourceGraphic" mode="normal" result="result5"/><feComposite id="feComposite4167" in="result5" in2="SourceGraphic" operator="in" result="result3"/></filter><clipPath id="clipPath4158" clipPathUnits="userSpaceOnUse"><rect id="rect4160" width="941.044" height="549.396" x="38.077" y="412.307" fill="#ff9a00" fill-opacity="1" stroke="none" stroke-dasharray="none" stroke-linecap="round" stroke-linejoin="round" stroke-miterlimit="4" stroke-opacity="1" stroke-width="9"/></clipPath><clipPath id="clipPath4195" clipPathUnits="userSpaceOnUse"><rect id="rect4197" width="745.172" height="540.999" x="139.414" y="178.035" fill="none" fill-opacity="1" stroke="#000" stroke-dasharray="none" stroke-linecap="round" stroke-linejoin="miter" stroke-miterlimit="4" stroke-opacity="1" stroke-width="17.387" opacity="1" rx="200" ry="200"/></clipPath></defs><metadata id="metadata7"/><g id="layer1" transform="translate(0,-28.362161)"><rect id="rect3336" width="1100" height="1100" x="-38" y="-9.638" fill="url(#linearGradient3344)" fill-opacity="1" fill-rule="evenodd" stroke="none" stroke-linecap="butt" stroke-linejoin="miter" stroke-opacity="1" stroke-width="1" filter="url(#filter4157)"/><g id="g4189" transform="matrix(1.1309946,0,0,1.1309946,-64.760984,-82.504775)"><g id="g4174" transform="matrix(0.98581712,-0.16782313,0.16782313,0.98581712,-19.424706,171.74638)"><rect id="rect4157" width="700" height="501.961" x="121.569" y="144.519" fill="#85e1ff" fill-opacity="1" stroke="#000" stroke-dasharray="none" stroke-linecap="round" stroke-linejoin="miter" stroke-miterlimit="4" stroke-opacity="1" stroke-width="12" opacity="1"/><path id="path4161" fill="#007400" fill-opacity="1" fill-rule="evenodd" stroke="none" stroke-linecap="butt" stroke-linejoin="miter" stroke-opacity="1" stroke-width="1" d="m 250.98039,465.10725 53.8621,-95.89281 14.64641,-13.53986 4.04052,-11.15556 309.80391,0 2.41615,14.38389 26.24291,27.61197 41.92918,78.59237 z"/><path id="path4163" fill="#050" fill-opacity="1" fill-rule="evenodd" stroke="none" stroke-linecap="butt" stroke-linejoin="miter" stroke-opacity="1" stroke-width=".903" d="m 590.08035,465.16831 111.63472,-54.57142 19.67727,-15.16108 21.33263,11.87689 47.60617,57.85561 z"/><path id="path4159" fill="#050" fill-opacity="1" fill-rule="evenodd" stroke="none" stroke-linecap="butt" stroke-linejoin="miter" stroke-opacity="1" stroke-width="1.107" d="m 164.79474,465.09753 72.44483,-115.38537 24.4729,0 63.68859,115.38537 z"/><rect id="rect4165" width="696.078" height="192.157" x="123.529" y="448.441" fill="#0638c0" fill-opacity="1" stroke="none" stroke-dasharray="none" stroke-linecap="round" stroke-linejoin="miter" stroke-miterlimit="4" stroke-opacity="1" stroke-width="12" opacity="1"/><rect id="rect4167" width="700" height="501.961" x="121.569" y="144.519" fill="none" fill-opacity="1" stroke="#000" stroke-dasharray="none" stroke-linecap="round" stroke-linejoin="miter" stroke-miterlimit="4" stroke-opacity="1" stroke-width="12" opacity="1"/><circle id="path4169" cx="727.451" cy="240.597" r="37.255" fill="#ff0" fill-opacity="1" stroke="none" stroke-dasharray="none" stroke-linecap="round" stroke-linejoin="miter" stroke-miterlimit="4" stroke-opacity="1" stroke-width="12" opacity="1"/></g><path id="rect4171" fill="#c87137" fill-opacity="1" stroke="none" stroke-dasharray="none" stroke-linecap="round" stroke-linejoin="miter" stroke-miterlimit="4" stroke-opacity="1" stroke-width="12" d="m 102.05296,277.77458 90.84983,-15.46606 -75.38378,106.31587 z" opacity="1"/><path id="path4183" fill="#c87137" fill-opacity="1" stroke="none" stroke-dasharray="none" stroke-linecap="round" stroke-linejoin="miter" stroke-miterlimit="4" stroke-opacity="1" stroke-width="12" d="m 813.30407,146.58068 25.31814,88.61085 -113.92897,-63.29272 z" opacity="1"/><path id="path4185" fill="#c87137" fill-opacity="1" stroke="none" stroke-dasharray="none" stroke-linecap="round" stroke-linejoin="miter" stroke-miterlimit="4" stroke-opacity="1" stroke-width="12" d="m 916.64211,696.22423 -91.87739,7.1718 84.7056,-99.04917 z" opacity="1"/><path id="path4187" fill="#c87137" fill-opacity="1" stroke="none" stroke-dasharray="none" stroke-linecap="round" stroke-linejoin="miter" stroke-miterlimit="4" stroke-opacity="1" stroke-width="12" d="M 185.85672,813.71752 175.00815,722.2014 277.37282,802.86895 Z" opacity="1"/></g><g id="g4236" fill="#28170b" transform="matrix(0.98828488,0.15262044,-0.15262044,0.98828488,318.82774,-105.3927)"><path id="path4238" fill="#28170b" fill-opacity="1" d="m 585.88811,1004.5669 c -19.722,9.403 -51.38464,6.6294 -66.88533,-5.85909 -2.60869,-2.10175 -44.67214,-20.05525 -93.47432,-39.89663 -99.18346,-40.3248 -100.27915,-41.00769 -98.7595,-61.55285 1.36999,-18.52159 15.63473,-33.29336 30.84215,-31.93841 3.35592,0.29901 22.02021,6.90831 41.47624,14.68736 l 35.37457,14.14373 -83.23996,-112.24919 C 259.61498,658.3697 263.69337,665.16297 270.50361,647.4513 c 7.01481,-18.24371 29.88952,-27.75369 46.7825,-19.4495 7.3719,3.62389 13.16157,10.44042 47.56169,55.99731 l 39.16902,51.87042 0.4933,-11.55295 c 0.9203,-21.55321 20.36226,-37.80976 41.66244,-34.83638 10.20978,1.42523 12.48162,2.79955 19.08453,11.54499 l 7.49513,9.92718 1.69817,-10.74589 c 3.00872,-19.03896 13.56581,-30.32961 32.27873,-34.52153 16.98933,-3.80584 22.7422,0.51748 52.6144,39.53987 l 25.40822,33.19104 -11.4544,-20.03136 c -13.15044,-22.9974 -14.68802,-29.21598 -10.09555,-40.83043 4.38333,-11.08555 13.03048,-17.26335 25.07893,-17.9172 19.35542,-1.05036 18.87193,-1.60584 67.72486,77.81232 24.06201,39.11658 48.71197,78.99071 54.77771,88.60916 17.49952,27.74907 19.12889,49.91232 5.53918,75.34561 -5.34916,10.01103 -9.16624,13.31 -63.11869,54.55123 -31.5839,24.14265 -61.87548,46.01761 -67.31467,48.61091 z"/></g></g></svg>