<svg xmlns="http://www.w3.org/2000/svg" xmlns:svg="http://www.w3.org/2000/svg" xmlns:xlink="http://www.w3.org/1999/xlink" id="svg2" width="1024" height="1024" version="1.1" viewBox="0 0 1024 1024"><defs id="defs4"><linearGradient id="linearGradient3338"><stop id="stop3340" offset="0" stop-color="#acf" stop-opacity="1"/><stop id="stop3342" offset="1" stop-color="#191817" stop-opacity="1"/></linearGradient><linearGradient id="linearGradient3344" x1="478.812" x2="478.812" y1="-64.867" y2="1167.52" gradientUnits="userSpaceOnUse" xlink:href="#linearGradient3338"/><filter id="filter4157" color-interpolation-filters="sRGB"><feTurbulence id="feTurbulence4159" baseFrequency="1" numOctaves="3" result="result0" seed="0" type="fractalNoise"/><feColorMatrix id="feColorMatrix4161" result="result4" type="saturate" values="0"/><feComposite id="feComposite4163" in="SourceGraphic" in2="result4" k1=".5" k2=".25" k3=".25" operator="arithmetic" result="result2"/><feBlend id="feBlend4165" in="result2" in2="SourceGraphic" mode="normal" result="result5"/><feComposite id="feComposite4167" in="result5" in2="SourceGraphic" operator="in" result="result3"/></filter><clipPath id="clipPath4158" clipPathUnits="userSpaceOnUse"><rect id="rect4160" width="941.044" height="549.396" x="38.077" y="412.307" fill="#ff9a00" fill-opacity="1" stroke="none" stroke-dasharray="none" stroke-linecap="round" stroke-linejoin="round" stroke-miterlimit="4" stroke-opacity="1" stroke-width="9"/></clipPath><clipPath id="clipPath4158-7" clipPathUnits="userSpaceOnUse"><rect id="rect4160-6" width="941.044" height="549.396" x="38.077" y="412.307" fill="#ff9a00" fill-opacity="1" stroke="none" stroke-dasharray="none" stroke-linecap="round" stroke-linejoin="round" stroke-miterlimit="4" stroke-opacity="1" stroke-width="9"/></clipPath><clipPath id="clipPath4195" clipPathUnits="userSpaceOnUse"><rect id="rect4197" width="745.172" height="540.999" x="139.414" y="178.035" fill="none" fill-opacity="1" stroke="#000" stroke-dasharray="none" stroke-linecap="round" stroke-linejoin="miter" stroke-miterlimit="4" stroke-opacity="1" stroke-width="17.387" opacity="1" rx="200" ry="200"/></clipPath><filter id="filter4443" color-interpolation-filters="sRGB"><feFlood id="feFlood4445" flood-color="#000" flood-opacity=".498" result="flood"/><feComposite id="feComposite4447" in="flood" in2="SourceGraphic" operator="in" result="composite1"/><feGaussianBlur id="feGaussianBlur4449" in="composite1" result="blur" stdDeviation="3"/><feOffset id="feOffset4451" dx="6" dy="6" result="offset"/><feComposite id="feComposite4453" in="SourceGraphic" in2="offset" operator="over" result="composite2"/></filter></defs><metadata id="metadata7"/><g id="layer1" transform="translate(0,-28.362161)"><rect id="rect3336" width="1100" height="1100" x="-38" y="-9.638" fill="url(#linearGradient3344)" fill-opacity="1" fill-rule="evenodd" stroke="none" stroke-linecap="butt" stroke-linejoin="miter" stroke-opacity="1" stroke-width="1" filter="url(#filter4157)"/><rect id="rect3021" width="668.879" height="411.618" x="177.56" y="334.553" fill="#217844" fill-opacity="1" stroke="none" filter="url(#filter4443)" transform="translate(0,8.9003906e-6)"/><text id="text3029" x="514.161" y="221.209" fill="#fff" fill-opacity="1" stroke="none" filter="url(#filter4443)" font-family="Sans" font-size="40" font-style="normal" font-weight="normal" letter-spacing="0" transform="translate(0,-6.3583984e-6)" word-spacing="0" xml:space="preserve" style="line-height:100%"><tspan style="text-align:center;line-height:100%" id="tspan3031" x="514.161" y="221.209" fill="#fff" font-size="150" text-anchor="middle">Android</tspan><tspan style="text-align:center;line-height:100%" id="tspan3041" x="514.161" y="971.209" fill="#fff" font-size="150" text-anchor="middle">Animations</tspan></text><text id="text3043" x="254.617" y="619.478" fill="#87de87" fill-opacity="1" stroke="none" filter="url(#filter4443)" font-family="Sans" font-size="40" font-style="normal" font-weight="normal" letter-spacing="0" word-spacing="0" xml:space="preserve" style="line-height:125%"><tspan id="tspan3045" x="254.617" y="619.478" fill="#87de87" font-size="220">View</tspan></text><path id="path3067" fill="#052" stroke="none" d="m 112.45281,329.71854 c -1.19095,-38.51227 28.10782,-53.00791 59.73182,-54.17406 -28.55709,12.87955 -46.08888,29.21141 -59.73182,54.17406 z" filter="url(#filter4443)"/><path id="path3113" fill="#052" stroke="none" d="m 139.63978,346.76433 c -1.19095,-38.51227 16.02472,-43.51405 47.64872,-44.6802 -32.30382,10.38174 -37.15274,17.61958 -47.64872,44.6802 z" filter="url(#filter4443)"/><path id="path3156" fill="#052" stroke="none" d="m 162.78334,803.81235 c -38.41429,-2.99262 -49.64707,-33.6906 -47.37682,-65.25455 9.70666,29.78542 24.04093,48.98495 47.37682,65.25455 z" filter="url(#filter4443)"/><path id="path3158" fill="#052" stroke="none" d="m 182.67695,778.63429 c -38.41429,-2.99262 -41.51959,-20.64918 -39.24933,-52.21313 6.81726,33.23916 13.48656,38.84441 39.24933,52.21313 z" filter="url(#filter4443)"/><path id="path3172" fill="#052" stroke="none" d="m 909.09256,751.95935 c -0.229,38.53 -30.04203,51.93616 -61.68752,51.9362 29.0123,-11.8185 47.13399,-27.49323 61.68752,-51.9362 z" filter="url(#filter4443)"/><path id="path3174" fill="#052" stroke="none" d="m 882.55218,733.92332 c -0.22901,38.53 -17.6173,42.894 -49.26279,42.89404 32.66444,-9.18432 37.77677,-16.23857 49.26279,-42.89404 z" filter="url(#filter4443)"/><path id="path3176" fill="#052" stroke="none" d="m 881.83551,279.99307 c 36.03475,13.64221 38.21075,46.25825 27.18247,75.9199 -0.96693,-31.31222 -9.34368,-53.76045 -27.18247,-75.9199 z" filter="url(#filter4443)"/><path id="path3178" fill="#052" stroke="none" d="m 855.68092,298.58415 c 36.03475,13.64221 34.06544,31.46126 23.03713,61.12292 2.77488,-33.81741 -2.0555,-41.06763 -23.03713,-61.12292 z" filter="url(#filter4443)"/></g></svg>