<svg xmlns="http://www.w3.org/2000/svg" xmlns:svg="http://www.w3.org/2000/svg" xmlns:xlink="http://www.w3.org/1999/xlink" id="svg2" width="1024" height="1024" version="1.1" viewBox="0 0 1024 1024"><defs id="defs4"><linearGradient id="linearGradient3338"><stop id="stop3340" offset="0" stop-color="#025" stop-opacity="1"/><stop id="stop3342" offset="1" stop-color="#191817" stop-opacity="1"/></linearGradient><linearGradient id="linearGradient3344" x1="478.812" x2="478.812" y1="-64.867" y2="1167.52" gradientUnits="userSpaceOnUse" xlink:href="#linearGradient3338"/><filter id="filter4157" color-interpolation-filters="sRGB"><feTurbulence id="feTurbulence4159" baseFrequency="1" numOctaves="3" result="result0" seed="0" type="fractalNoise"/><feColorMatrix id="feColorMatrix4161" result="result4" type="saturate" values="0"/><feComposite id="feComposite4163" in="SourceGraphic" in2="result4" k1=".5" k2=".25" k3=".25" operator="arithmetic" result="result2"/><feBlend id="feBlend4165" in="result2" in2="SourceGraphic" mode="normal" result="result5"/><feComposite id="feComposite4167" in="result5" in2="SourceGraphic" operator="in" result="result3"/></filter><filter id="filter4153" color-interpolation-filters="sRGB"><feFlood id="feFlood4155" flood-color="#000" flood-opacity=".498" result="flood"/><feComposite id="feComposite4157" in="flood" in2="SourceGraphic" operator="in" result="composite1"/><feGaussianBlur id="feGaussianBlur4159" in="composite1" result="blur" stdDeviation="3"/><feOffset id="feOffset4161" dx="6" dy="6" result="offset"/><feComposite id="feComposite4164" in="SourceGraphic" in2="offset" operator="over" result="composite2"/></filter><filter id="filter4153-8" color-interpolation-filters="sRGB"><feFlood id="feFlood4155-2" flood-color="#000" flood-opacity=".498" result="flood"/><feComposite id="feComposite4157-2" in="flood" in2="SourceGraphic" operator="in" result="composite1"/><feGaussianBlur id="feGaussianBlur4159-7" in="composite1" result="blur" stdDeviation="3"/><feOffset id="feOffset4161-5" dx="6" dy="6" result="offset"/><feComposite id="feComposite4164-4" in="SourceGraphic" in2="offset" operator="over" result="composite2"/></filter></defs><metadata id="metadata7"/><g id="layer1" transform="translate(0,-28.362161)"><rect id="rect3336" width="1100" height="1100" x="-38" y="-9.638" fill="url(#linearGradient3344)" fill-opacity="1" fill-rule="evenodd" stroke="none" stroke-linecap="butt" stroke-linejoin="miter" stroke-opacity="1" stroke-width="1" filter="url(#filter4157)"/><path id="path4150" fill="#fca" fill-opacity="1" stroke="none" stroke-dasharray="none" stroke-linecap="butt" stroke-linejoin="round" stroke-miterlimit="4" stroke-opacity="1" stroke-width="39" d="M 956.33402,875.08947 C 897.3428,951.0757 713.03847,637.72165 624.49275,698.83881 535.94703,759.95597 701.28434,905.25675 627.35474,922.4639 553.42514,939.67105 615.51313,736.21403 507.95437,733.61299 400.39562,731.01195 439.02566,998.67937 352.52137,967.25976 266.01708,935.84015 478.7211,758.57209 393.2331,693.24635 307.74509,627.92062 278.01545,756.21249 254.27416,720.33551 230.53287,684.45853 354.91228,696.25581 324.14854,593.15759 293.38479,490.05936 57.545994,627.53176 60.147039,531.60033 62.748084,435.6689 291.37744,573.06787 327.08866,471.57718 c 35.71123,-101.49069 -73.8996,-85.80087 -51.07209,-116.63181 22.82751,-30.83094 36.36815,81.11652 124.91387,19.99936 88.54572,-61.11715 -84.84515,-188.63835 -0.75047,-215.17908 84.09468,-26.54073 9.7301,177.80385 117.28885,180.4049 107.55875,2.60105 59.22108,-250.354457 155.43301,-218.86624 96.21192,31.48822 -112.64322,199.0487 -40.71173,259.23287 71.9315,60.18416 106.84723,-56.36345 128.40141,-8.08561 16.69554,37.39529 -90.08059,5.07617 -59.31685,108.17439 30.76375,103.09822 178.97513,6.50578 177.42983,65.78025 -1.5453,59.27447 -144.65873,-45.69054 -180.36996,55.80015 -35.71122,101.49069 316.99067,196.89687 257.99949,272.88311 z" filter="url(#filter4153)" opacity="1" transform="matrix(1.0598857,0.09615686,-0.09615686,1.0598857,27.455073,-88.744338)"/><circle id="path4153" cx="91.467" cy="788.238" r="27.748" fill="#ffe6d5" fill-opacity="1" stroke="none" stroke-dasharray="none" stroke-linecap="butt" stroke-linejoin="round" stroke-miterlimit="4" stroke-opacity="1" stroke-width="39" filter="url(#filter4153)" opacity="1" transform="matrix(0.69135806,0,0,0.69135806,65.228554,210.3962)"/><circle id="path4155" cx="124.354" cy="192.16" r="23.638" fill="#ffe6d5" fill-opacity="1" stroke="none" stroke-dasharray="none" stroke-linecap="butt" stroke-linejoin="round" stroke-miterlimit="4" stroke-opacity="1" stroke-width="39" filter="url(#filter4153)" opacity="1" transform="matrix(0.63768119,0,0,0.63768119,151.93885,143.61901)"/><circle id="path4157" cx="950.642" cy="266.156" r="35.97" fill="#ffe6d5" fill-opacity="1" stroke="none" stroke-dasharray="none" stroke-linecap="butt" stroke-linejoin="round" stroke-miterlimit="4" stroke-opacity="1" stroke-width="39" filter="url(#filter4153)" opacity="1" transform="matrix(0.54761903,0,0,0.54761903,357.08407,191.3165)"/><circle id="path4155-3" cx="411.088" cy="65.75" r="29.804" fill="#ffe6d5" fill-opacity="1" stroke="none" stroke-dasharray="none" stroke-linecap="butt" stroke-linejoin="round" stroke-miterlimit="4" stroke-opacity="1" stroke-width="39" filter="url(#filter4153)" opacity="1" transform="matrix(0.94252873,0,0,0.94252873,235.33627,949.28197)"/><text id="text4174" x="520.16" y="502.409" fill="#000" fill-opacity="1" stroke="none" stroke-linecap="butt" stroke-linejoin="miter" stroke-opacity="1" stroke-width="1" filter="url(#filter4153)" font-family="sans-serif" font-size="125.712" font-style="normal" font-weight="normal" letter-spacing="0" word-spacing="0" xml:space="preserve" style="line-height:100%"><tspan style="line-height:100%;-inkscape-font-specification:'Museo Medium';text-align:center" id="tspan4176" x="520.16" y="502.409" font-family="Museo" font-stretch="normal" font-style="normal" font-variant="normal" font-weight="500" text-anchor="middle">Video</tspan><tspan id="tspan4151" x="517.66" y="628.121" dx="0" font-family="Museo" font-stretch="normal" font-style="normal" font-variant="normal" font-weight="500" letter-spacing="-5" text-anchor="middle" style="line-height:100%;-inkscape-font-specification:'Museo Medium';text-align:center">Splash</tspan></text><circle id="path4155-3-5" cx="411.088" cy="65.75" r="29.804" fill="#ffe6d5" fill-opacity="1" stroke="none" stroke-dasharray="none" stroke-linecap="butt" stroke-linejoin="round" stroke-miterlimit="4" stroke-opacity="1" stroke-width="39" filter="url(#filter4153-8)" opacity="1" transform="matrix(1.2586207,0,0,1.2586207,-407.43817,68.296506)"/></g></svg>