<svg xmlns="http://www.w3.org/2000/svg" xmlns:svg="http://www.w3.org/2000/svg" xmlns:xlink="http://www.w3.org/1999/xlink" id="svg2" width="1024" height="1024" version="1.1" viewBox="0 0 1024 1024"><defs id="defs4"><linearGradient id="linearGradient3338"><stop id="stop3340" offset="0" stop-color="#242a3d" stop-opacity="1"/><stop id="stop3342" offset="1" stop-color="#191817" stop-opacity="1"/></linearGradient><linearGradient id="linearGradient3344" x1="478.812" x2="478.812" y1="-64.867" y2="1167.52" gradientUnits="userSpaceOnUse" xlink:href="#linearGradient3338"/><filter id="filter4157" color-interpolation-filters="sRGB"><feTurbulence id="feTurbulence4159" baseFrequency="1" numOctaves="3" result="result0" seed="0" type="fractalNoise"/><feColorMatrix id="feColorMatrix4161" result="result4" type="saturate" values="0"/><feComposite id="feComposite4163" in="SourceGraphic" in2="result4" k1=".5" k2=".25" k3=".25" operator="arithmetic" result="result2"/><feBlend id="feBlend4165" in="result2" in2="SourceGraphic" mode="normal" result="result5"/><feComposite id="feComposite4167" in="result5" in2="SourceGraphic" operator="in" result="result3"/></filter></defs><metadata id="metadata7"/><g id="layer1" transform="translate(0,-28.362161)"><rect id="rect3336" width="1100" height="1100" x="-38" y="-9.638" fill="url(#linearGradient3344)" fill-opacity="1" fill-rule="evenodd" stroke="none" stroke-linecap="butt" stroke-linejoin="miter" stroke-opacity="1" stroke-width="1" filter="url(#filter4157)"/><path id="path4167" fill="#5270eb" fill-opacity="1" fill-rule="evenodd" stroke="none" stroke-linecap="butt" stroke-linejoin="miter" stroke-opacity="1" stroke-width="1" d="M 326.10753,484.51862 C 492.89501,355.51907 417.43168,296.00626 403.6492,219.95648 l 215.86909,2.47036 c -14.40744,82.78756 -73.47154,136.90247 80.31091,264.35273 z" transform="translate(0,28.362161)"/><ellipse id="path4160" cx="512" cy="700.829" fill="#5270eb" fill-opacity="1" stroke="none" stroke-dasharray="none" stroke-linecap="butt" stroke-linejoin="miter" stroke-miterlimit="4" stroke-opacity=".251" stroke-width="15" rx="264.113" ry="264.113"/><ellipse id="ellipse4146" cx="512" cy="237.56" fill="#5270eb" fill-opacity="1" stroke="none" stroke-dasharray="none" stroke-linecap="butt" stroke-linejoin="miter" stroke-miterlimit="4" stroke-opacity=".251" stroke-width="15" rx="108.794" ry="108.794"/><path id="path4148" fill="none" fill-rule="evenodd" stroke="#fff" stroke-dasharray="none" stroke-linecap="round" stroke-linejoin="round" stroke-miterlimit="4" stroke-opacity="1" stroke-width="34.355" d="m 512,575.20793 0,251.24258"/><path id="path4165" fill="none" fill-rule="evenodd" stroke="#fff" stroke-dasharray="none" stroke-linecap="round" stroke-linejoin="round" stroke-miterlimit="4" stroke-opacity="1" stroke-width="34.355" d="m 637.62129,700.82922 -251.24258,0"/><path id="path4174" fill="#fff" fill-opacity="1" stroke="#fff" stroke-dasharray="none" stroke-linecap="round" stroke-linejoin="round" stroke-miterlimit="4" stroke-opacity="1" stroke-width="9.661" d="m 512,193.05978 c 4.35214,0 13.13683,23.68884 16.65779,26.24696 3.52096,2.55813 28.765,3.59261 30.10988,7.73175 1.34489,4.13913 -18.46992,19.81412 -19.8148,23.95325 -1.34489,4.13913 5.4721,28.46732 1.95114,31.02544 -3.52096,2.55813 -24.55187,-11.44304 -28.90401,-11.44304 -4.35214,0 -25.38306,14.00117 -28.90401,11.44304 -3.52096,-2.55812 3.29603,-26.88631 1.95114,-31.02544 -1.34488,-4.13913 -21.15969,-19.81412 -19.8148,-23.95326 1.34488,-4.13913 26.58892,-5.17361 30.10988,-7.73174 3.52096,-2.55812 12.30565,-26.24696 16.65779,-26.24696 z" opacity=".5"/></g></svg>